<svg version="1.1" xmlns="http://www.w3.org/2000/svg" viewBox="0 0 50.47027820425109 69.97049528138712" width="50.47027820425109" height="69.97049528138712">
  <!-- svg-source:excalidraw -->
  
  <defs>
    <style class="style-fonts">
      @font-face {
        font-family: "Virgil";
        src: url("https://excalidraw.com/Virgil.woff2");
      }
      @font-face {
        font-family: "Cascadia";
        src: url("https://excalidraw.com/Cascadia.woff2");
      }
    </style>
    
  </defs>
  <g stroke-linecap="round"><g transform="translate(12.463397694770265 14.88043618761003) rotate(0 5.777839076891524 4.132783616129309)"><path d="M-1.01 -0.41 C1.16 1.27, 10.34 7.41, 12.57 8.95 M0.65 -1.67 C2.76 0.21, 10.07 8.06, 11.92 9.94" stroke="#c2255c" stroke-width="1" fill="none"></path></g></g><mask></mask><g stroke-linecap="round"><g transform="translate(24.463397694770265 22.88043618761003) rotate(0 7.392724370900538 -5.922501466516406)"><path d="M0.16 0.17 C2.99 -1.74, 13.62 -8.51, 16.01 -10.27 M-1.22 -0.79 C1.63 -2.54, 13.14 -10.07, 15.59 -12.01" stroke="#c2255c" stroke-width="1" fill="none"></path></g></g><mask></mask><g stroke-linecap="round"><g transform="translate(11.463397694770265 16.88043618761003) rotate(0 -0.25743744053878004 15.563618677482008)"><path d="M-1.08 -0.55 C-1.05 4.92, -0.1 26.44, -0.18 31.67 M0.56 1.78 C0.54 7, -0.17 24.86, -0.7 29.9" stroke="#c2255c" stroke-width="1" fill="none"></path></g></g><mask></mask><g stroke-linecap="round"><g transform="translate(13.463397694770265 51.88043618761003) rotate(0 12.798746144399047 1.1950948643351254)"><path d="M-0.47 -0.74 C1.11 0.18, 4.64 5.66, 9.07 5.13 C13.49 4.6, 23.52 -2.39, 26.07 -3.91 M1.48 1.49 C3.04 2.56, 4.62 6.98, 8.68 6.21 C12.74 5.45, 23.27 -1.46, 25.87 -3.07" stroke="#c2255c" stroke-width="1" fill="none"></path></g></g><mask></mask><g stroke-linecap="round"><g transform="translate(38.463397694770265 10.88043618761003) rotate(0 0.21174160519788643 20.157369451578703)"><path d="M-0.7 -0.88 C-0.79 5.61, 0.33 33.1, 0.66 39.78 M1.13 1.27 C0.76 7.88, -0.39 34.73, -0.46 41.2" stroke="#c2255c" stroke-width="1" fill="none"></path></g></g><mask></mask><g stroke-linecap="round"><g transform="translate(24.463397694770265 20.88043618761003) rotate(0 0.2452337811745906 19.934890082720663)"><path d="M0.97 1.2 C1.16 7.61, 0.71 31.77, 0.62 37.71 M0.01 0.78 C0.07 7.43, -0.43 32.96, -0.52 39.09" stroke="#c2255c" stroke-width="1" fill="none"></path></g></g><mask></mask><g stroke-linecap="round"><g transform="translate(30.463397694770265 28.88043618761003) rotate(0 2.633095240965474 -1.5596233550459146)"><path d="M-0.66 0.77 C0.15 0.27, 4.97 -3.4, 5.93 -3.89 M1.19 0.13 C1.74 -0.17, 3.89 -2.12, 4.95 -2.82" stroke="#c2255c" stroke-width="1" fill="none"></path></g></g><mask></mask><g stroke-linecap="round"><g transform="translate(13.463397694770265 23.88043618761003) rotate(0 3.3890604618936777 3.1201023160759362)"><path d="M-0.86 0.4 C0.24 1.43, 6.24 5.72, 7.63 6.67 M0.9 -0.43 C1.72 0.21, 5.56 3.58, 6.49 4.9" stroke="#c2255c" stroke-width="1" fill="none"></path></g></g><mask></mask><g stroke-linecap="round"><g transform="translate(10.463397694770265 32.88043618761003) rotate(0 4.924354722853735 2.264505292708055)"><path d="M0.65 -0.89 C1.95 -0.3, 6.56 3.32, 8.08 4.27 M-0.46 1.25 C1.18 1.92, 8.66 4.63, 10.31 5.42" stroke="#c2255c" stroke-width="1" fill="none"></path></g></g><mask></mask><g stroke-linecap="round"><g transform="translate(12.463397694770265 41.88043618761003) rotate(0 4.921325808390975 2.2090031949244455)"><path d="M-0.82 -0.33 C0.99 0.81, 8.69 5.02, 10.67 5.96 M0.95 -1.55 C2.68 -0.65, 8.42 3.56, 10.07 4.35" stroke="#c2255c" stroke-width="1" fill="none"></path></g></g><mask></mask></svg>