<svg xmlns="http://www.w3.org/2000/svg" viewBox="0 0 24 21" fill="none" x="0px" y="0px">
    <path d="M12.2399 4.00425C12.3912 3.90025 12.5534 3.81022 12.7247 3.73605L13.8893 3.23191C14.663 2.89697 15.545 2.91978 16.3004 3.29427C16.9074 3.5952 17.3882 4.10147 17.6573 4.72322L22.7651 16.4906C22.9123 16.8307 22.991 17.1934 23 17.5583C23.0075 17.8604 22.9671 18.1641 22.8784 18.4579C22.6345 19.265 22.0337 19.9237 21.26 20.2587L20.0954 20.7628C19.3217 21.0977 18.4397 21.0749 17.6843 20.7004C17.0773 20.3995 16.5965 19.8932 16.3274 19.2715L13 11.5851V18C13 19.6569 11.6569 21 10 21H9C8.23164 21 7.53076 20.7111 7 20.2361C6.46925 20.7111 5.76836 21 5 21H4C2.34315 21 1 19.6569 1 18V6C1 4.34315 2.34315 3 4 3H5C5.76835 3 6.46924 3.28885 7 3.76389C7.53076 3.28885 8.23165 3 9 3H10C10.8906 3 11.6905 3.38803 12.2399 4.00425ZM14.6838 5.06732C14.9175 4.96615 15.1839 4.97304 15.4121 5.08615C15.5954 5.17705 15.7406 5.32996 15.8219 5.51775L20.9159 17.2852C20.9972 17.4729 21.0093 17.6835 20.9501 17.8794C20.8765 18.1231 20.6992 18.3221 20.4655 18.4232L19.3009 18.9274C19.0672 19.0286 18.8008 19.0217 18.5726 18.9086C18.3893 18.8177 18.2441 18.6647 18.1628 18.477L13.0688 6.70955C13.0302 6.62038 13.0072 6.52608 13 6.43067V6.30076C13.0047 6.23829 13.0162 6.17612 13.0346 6.11535C13.1082 5.87158 13.2855 5.67263 13.5192 5.57146L14.6838 5.06732ZM11 6.24742V6C11 5.44772 10.5523 5 10 5H9C8.44772 5 8 5.44772 8 6V18C8 18.5523 8.44772 19 9 19H10C10.5523 19 11 18.5523 11 18V6.48395C10.9967 6.40519 10.9967 6.32628 11 6.24742ZM4 5C3.44772 5 3 5.44772 3 6V18C3 18.5523 3.44772 19 4 19H5C5.55228 19 6 18.5523 6 18V6C6 5.44772 5.55228 5 5 5H4Z" fill="#c2255c"/>
</svg>