<svg xmlns:dc="http://purl.org/dc/elements/1.1/"
    xmlns:cc="http://creativecommons.org/ns#"
    xmlns:rdf="http://www.w3.org/1999/02/22-rdf-syntax-ns#"
    xmlns:svg="http://www.w3.org/2000/svg"
    xmlns="http://www.w3.org/2000/svg"
    xmlns:sodipodi="http://sodipodi.sourceforge.net/DTD/sodipodi-0.dtd"
    xmlns:inkscape="http://www.inkscape.org/namespaces/inkscape" version="1.1" x="0px" y="0px" viewBox="25 25 50 50">
    <g transform="translate(0,-952.36218)">
        <path d="m 50,978.36218 c -3.3136,0 -6,2.6863 -6,6 l 0,12 -12,0 c -3.3137,0 -6,2.6862 -6,6.00002 0,3.3136 2.6863,6 6,6 l 12,0 0,12 c 0,3.3137 2.6864,6 6,6 3.3138,0 6,-2.6863 6,-6 l 0,-12 12,0 c 3.3137,0 6,-2.6864 6,-6 0,-3.31382 -2.6863,-6.00002 -6,-6.00002 l -12,0 0,-12 c 0,-3.3137 -2.6862,-6 -6,-6 z" fill="#c2255c" stroke-width='1' stroke="#e64980"/>
    </g>
</svg>