<svg xmlns="http://www.w3.org/2000/svg"
    xmlns:xlink="http://www.w3.org/1999/xlink" version="1.1" x="0px" y="0px" viewBox="0 0 50 50" xml:space="preserve">
    <path d="M28.8378296,5.9506836C18.1896973,4.6534424,7.6548462,9.8117065,5.107605,20.7279663  c-6.1705933,26.4447021,39.8874512,32.2294312,41.0251465,7.305603  C45.9285889,17.3135986,40.2060547,7.3356934,28.8378296,5.9506836z M20.0700073,41.8347168  C10.5322876,38.8764648,5.005188,30.3132935,7.2938232,20.5042114C9.7666016,9.9060059,20.8471069,4.9276733,31.0210571,7.9747314  c8.8965454,2.6644287,12.7610474,11.6469727,12.9255371,20.2825928  C43.4137573,39.9298706,30.1442261,44.9593506,20.0700073,41.8347168z M34.5211182,26.8557739  c-0.4555664,2.6882935-2.7461548,2.6638794-4.9486084,2.6278076c-0.0716553,3.1235962-0.7792358,4.5090332-4.3513794,4.5090332  c-3.5811768,0-4.18573-1.3285522-4.2387695-4.4962769c-1.1563721,0.0585327-2.5369263,0.1898804-3.5060425-0.2993164  c-1.6486206-0.8322754-1.3692627-2.6419067-1.3692627-4.1846313c0-3.9344482,1.5535889-4.4917603,4.8769531-4.5509644  c0.0697021-3.1344604,0.7734375-4.5249634,4.3515015-4.5249634c3.5890503,0,4.1882324,1.3349609,4.2389526,4.5179443  c0.774231,0,1.5484619,0,2.3226929,0c0.0109253,0,0.0171509,0.0040283,0.027771,0.0042725  c0.0531006-0.0010376,0.1053467-0.008728,0.1594849,0.0021973C34.9588013,21.0411987,34.9373169,24.4000854,34.5211182,26.8557739z" stroke-width='1' stroke='#e64980' fill='#c2255c'/>
</svg>