<svg xmlns="http://www.w3.org/2000/svg"
    xmlns:xlink="http://www.w3.org/1999/xlink" version="1.1" x="0px" y="0px" viewBox="0 0 90 90" xml:space="preserve">
    <path d="M27,31h0.2l3.4,32.7c0.4,3,2.9,5.3,6,5.3h16.9c3,0,5.6-2.3,6-5.3L62.8,31H63c1.1,0,2-0.9,2-2s-0.9-2-2-2h-2h-4v-0.1  c0-3.3-2.7-5.9-6-5.9H39c-3.3,0-6,2.6-6,6h-4h-2c-1.1,0-2,0.9-2,2S25.9,31,27,31z M37,26.9c0-1.1,0.9-1.9,2-1.9H51c1.1,0,2,0.8,2,2  L37,26.9L37,26.9z M58.8,31l-3.3,32.2c-0.1,1-1,1.8-2,1.8H36.5c-1,0-1.9-0.8-2-1.7L31.2,31H58.8z" stroke-width='1' stroke='#e64980' fill='#c2255c'/>
    <path d="M41,61c1.1,0,2-0.9,2-2V37c0-1.1-0.9-2-2-2s-2,0.9-2,2v22C39,60.1,39.9,61,41,61z" stroke-width='1' stroke='#e64980' fill='#c2255c'/>
    <path d="M49,61c1.1,0,2-0.9,2-2V37c0-1.1-0.9-2-2-2s-2,0.9-2,2v22C47,60.1,47.9,61,49,61z" stroke-width='1' stroke='#e64980' fill='#c2255c'/>
</svg>